<?xml version="1.0" encoding="utf-8"?>
<svg width="245px" height="245px" viewBox="0 0 245 245" version="1.1" xmlns:xlink="http://www.w3.org/1999/xlink" xmlns="http://www.w3.org/2000/svg">
  <desc>Created with Lunacy</desc>
  <defs>
    <filter filterUnits="userSpaceOnUse" color-interpolation-filters="sRGB" id="filter_1">
      <feFlood flood-opacity="0" result="BackgroundImageFix" />
      <feColorMatrix in="SourceAlpha" type="matrix" values="0 0 0 0 0 0 0 0 0 0 0 0 0 0 0 0 0 0 127 0" />
      <feOffset dx="2" dy="2" />
      <feGaussianBlur stdDeviation="1.8" />
      <feColorMatrix type="matrix" values="0 0 0 0 1 0 0 0 0 1 0 0 0 0 1 0 0 0 0.1098039 0" />
      <feBlend mode="normal" in2="BackgroundImageFix" result="effect0_dropShadow" />
      <feColorMatrix in="SourceAlpha" type="matrix" values="0 0 0 0 0 0 0 0 0 0 0 0 0 0 0 0 0 0 127 0" />
      <feOffset dx="0" dy="6.4" />
      <feGaussianBlur stdDeviation="7.2" />
      <feColorMatrix type="matrix" values="0 0 0 0 0 0 0 0 0 0 0 0 0 0 0 0 0 0 0.1333333 0" />
      <feBlend mode="normal" in2="effect0_dropShadow" result="effect1_dropShadow" />
      <feBlend mode="normal" in="SourceGraphic" in2="effect1_dropShadow" result="shape" />
    </filter>
    <filter filterUnits="userSpaceOnUse" color-interpolation-filters="sRGB" id="filter_2">
      <feFlood flood-opacity="0" result="BackgroundImageFix" />
      <feColorMatrix in="SourceAlpha" type="matrix" values="0 0 0 0 0 0 0 0 0 0 0 0 0 0 0 0 0 0 127 0" />
      <feOffset dx="2" dy="2" />
      <feGaussianBlur stdDeviation="2" />
      <feColorMatrix type="matrix" values="0 0 0 0 0.3921569 0 0 0 0 0.3921569 0 0 0 0 0.3921569 0 0 0 0.4980392 0" />
      <feBlend mode="normal" in2="BackgroundImageFix" result="effect0_dropShadow" />
      <feBlend mode="normal" in="SourceGraphic" in2="effect0_dropShadow" result="shape" />
    </filter>
  </defs>
  <g filter="url(#filter_1)">
    <path d="M7.999 0L193.001 0Q193.197 0 193.394 0.00963514Q193.59 0.0192703 193.785 0.0385174Q193.98 0.0577644 194.175 0.0865771Q194.369 0.11539 194.562 0.153699Q194.754 0.192007 194.945 0.23972Q195.135 0.287433 195.323 0.344434Q195.511 0.401436 195.696 0.467589Q195.881 0.533742 196.062 0.608888Q196.243 0.684033 196.421 0.76799Q196.598 0.851946 196.772 0.944512Q196.945 1.03708 197.113 1.13803Q197.282 1.23898 197.445 1.34807Q197.608 1.45717 197.766 1.57414Q197.924 1.69112 198.076 1.81569Q198.227 1.94026 198.373 2.07213Q198.518 2.204 198.657 2.34285Q198.796 2.4817 198.928 2.6272Q199.06 2.7727 199.184 2.92449Q199.309 3.07628 199.426 3.234Q199.543 3.39172 199.652 3.55499Q199.761 3.71826 199.862 3.88669Q199.963 4.05512 200.055 4.2283Q200.148 4.40148 200.232 4.57899Q200.316 4.7565 200.391 4.93791Q200.466 5.11933 200.532 5.30422Q200.599 5.4891 200.656 5.67701Q200.713 5.86492 200.76 6.0554Q200.808 6.24588 200.846 6.43847Q200.885 6.63106 200.913 6.8253Q200.942 7.01954 200.961 7.21496Q200.981 7.41038 200.99 7.60651Q201 7.80264 201 7.999L201 193.001Q201 193.197 200.99 193.394Q200.981 193.59 200.961 193.785Q200.942 193.98 200.913 194.175Q200.885 194.369 200.846 194.562Q200.808 194.754 200.76 194.945Q200.713 195.135 200.656 195.323Q200.599 195.511 200.532 195.696Q200.466 195.881 200.391 196.062Q200.316 196.243 200.232 196.421Q200.148 196.598 200.055 196.772Q199.963 196.945 199.862 197.113Q199.761 197.282 199.652 197.445Q199.543 197.608 199.426 197.766Q199.309 197.924 199.184 198.076Q199.06 198.227 198.928 198.373Q198.796 198.518 198.657 198.657Q198.518 198.796 198.373 198.928Q198.227 199.06 198.076 199.184Q197.924 199.309 197.766 199.426Q197.608 199.543 197.445 199.652Q197.282 199.761 197.113 199.862Q196.945 199.963 196.772 200.055Q196.598 200.148 196.421 200.232Q196.243 200.316 196.062 200.391Q195.881 200.466 195.696 200.532Q195.511 200.599 195.323 200.656Q195.135 200.713 194.945 200.76Q194.754 200.808 194.562 200.846Q194.369 200.885 194.175 200.913Q193.98 200.942 193.785 200.961Q193.59 200.981 193.394 200.99Q193.197 201 193.001 201L7.999 201Q7.80264 201 7.60651 200.99Q7.41038 200.981 7.21496 200.961Q7.01954 200.942 6.8253 200.913Q6.63106 200.885 6.43847 200.846Q6.24588 200.808 6.0554 200.76Q5.86492 200.713 5.67701 200.656Q5.4891 200.599 5.30422 200.532Q5.11933 200.466 4.93791 200.391Q4.7565 200.316 4.57899 200.232Q4.40148 200.148 4.2283 200.055Q4.05512 199.963 3.88669 199.862Q3.71826 199.761 3.55499 199.652Q3.39172 199.543 3.234 199.426Q3.07628 199.309 2.92449 199.184Q2.7727 199.06 2.6272 198.928Q2.4817 198.796 2.34285 198.657Q2.204 198.518 2.07213 198.373Q1.94026 198.227 1.81569 198.076Q1.69112 197.924 1.57414 197.766Q1.45717 197.608 1.34807 197.445Q1.23898 197.282 1.13803 197.113Q1.03708 196.945 0.944512 196.772Q0.851946 196.598 0.76799 196.421Q0.684033 196.243 0.608888 196.062Q0.533742 195.881 0.467589 195.696Q0.401436 195.511 0.344434 195.323Q0.287433 195.135 0.23972 194.945Q0.192007 194.754 0.153699 194.562Q0.11539 194.369 0.0865771 194.175Q0.0577644 193.98 0.0385174 193.785Q0.0192703 193.59 0.00963514 193.394Q0 193.197 0 193.001L0 7.999Q0 7.80264 0.00963514 7.60651Q0.0192703 7.41038 0.0385174 7.21496Q0.0577644 7.01954 0.0865771 6.8253Q0.11539 6.63106 0.153699 6.43847Q0.192007 6.24588 0.23972 6.0554Q0.287433 5.86492 0.344434 5.67701Q0.401436 5.4891 0.467589 5.30422Q0.533742 5.11933 0.608888 4.93791Q0.684033 4.7565 0.76799 4.57899Q0.851946 4.40148 0.944512 4.2283Q1.03708 4.05512 1.13803 3.88669Q1.23898 3.71826 1.34807 3.55499Q1.45717 3.39172 1.57414 3.234Q1.69112 3.07628 1.81569 2.92449Q1.94026 2.7727 2.07213 2.6272Q2.204 2.4817 2.34285 2.34285Q2.4817 2.204 2.6272 2.07213Q2.7727 1.94026 2.92449 1.81569Q3.07628 1.69112 3.234 1.57414Q3.39172 1.45717 3.55499 1.34807Q3.71826 1.23898 3.88669 1.13803Q4.05512 1.03708 4.2283 0.944512Q4.40148 0.851946 4.57899 0.76799Q4.7565 0.684033 4.93791 0.608888Q5.11933 0.533742 5.30422 0.467589Q5.4891 0.401436 5.67701 0.344434Q5.86492 0.287433 6.0554 0.23972Q6.24588 0.192007 6.43847 0.153699Q6.63106 0.11539 6.8253 0.0865771Q7.01954 0.0577644 7.21496 0.0385174Q7.41038 0.0192703 7.60651 0.00963514Q7.80264 0 7.999 0Z" transform="translate(21.59998 15.20001)" id="Rectangle" fill="#232323" stroke="none" />
  </g>
  <g filter="url(#filter_2)" transform="translate(66.59985 19.20004)">
    <g id="IE" fill="#E9E9E9">
      <path d="M13.2188 146.414L25.0313 146.414L25.0313 45.5859L13.2188 45.5859L13.2188 146.414ZM51.5391 146.414L104.977 146.414L104.977 135.727L63.3516 135.727L63.3516 100.43L99.7734 100.43L99.7734 89.8125L63.3516 89.8125L63.3516 56.2734L102.727 56.2734L102.727 45.5859L51.5391 45.5859L51.5391 146.414Z" />
    </g>
  </g>
</svg>
